<?xml version="1.0" encoding="UTF-8"?>
<svg width="16px" height="16px" viewBox="0 0 16 16" version="1.1" xmlns="http://www.w3.org/2000/svg" xmlns:xlink="http://www.w3.org/1999/xlink">
    <title>icon_smoke copy 3</title>
    <g id="Page-1" stroke="none" stroke-width="1" fill="none" fill-rule="evenodd">
        <g id="UI-kits" transform="translate(-954.000000, -576.000000)" fill="#474D58" fill-rule="nonzero">
            <g id="icon_smoke-copy-3" transform="translate(954.000000, 576.000000)">
                <path d="M15.5,0.5 L15.5,15.5 L0.5,15.5 L0.5,0.5 L15.5,0.5 Z M14.5,4.914 L7.11612042,4.914 C6.42576448,4.914 5.86612042,5.47364857 5.86612042,6.16400451 C5.86612042,6.8112132 6.35799508,7.34353841 6.98831518,7.4075509 L7.11612042,7.414 L9.55649448,7.414 C10.7991352,7.414 11.8064945,8.42136382 11.8064945,9.66400451 C11.8064945,10.8548685 10.8813329,11.8296494 9.71054329,11.9088137 L9.55649448,11.914 L1.499,11.914 L1.5,14.5 L14.5,14.5 L14.5,4.914 Z M14.5,1.5 L1.5,1.5 L1.499,10.9140045 L9.55649448,10.9140045 C10.2468504,10.9140045 10.8064945,10.3543604 10.8064945,9.66400451 C10.8064945,9.01679582 10.3146198,8.48447061 9.68429971,8.42045812 L9.55649448,8.41400451 L7.11612042,8.41400451 C5.87347973,8.41400451 4.86612042,7.4066452 4.86612042,6.16400451 C4.86612042,4.97314052 5.79128201,3.99835959 6.96207161,3.91919532 L7.11612042,3.91400451 L14.5,3.914 L14.5,1.5 Z" id="Shape"></path>
            </g>
        </g>
    </g>
</svg>