<?xml version="1.0" encoding="UTF-8"?>
<svg width="16px" height="16px" viewBox="0 0 16 16" version="1.1" xmlns="http://www.w3.org/2000/svg" xmlns:xlink="http://www.w3.org/1999/xlink">
    <title>icon_grain copy 3</title>
    <g id="Page-1" stroke="none" stroke-width="1" fill="none" fill-rule="evenodd">
        <g id="UI-kits" transform="translate(-913.000000, -576.000000)" fill="#474D58" fill-rule="nonzero">
            <g id="icon_grain-copy-3" transform="translate(913.000000, 576.000000)">
                <path d="M15.5,0.5 L15.5,15.5 L0.5,15.5 L0.5,0.5 L15.5,0.5 Z M14.5,1.5 L1.5,1.5 L1.5,14.5 L14.5,14.5 L14.5,1.5 Z M13,12 L13,13 L12,13 L12,12 L13,12 Z M4,12 L4,13 L3,13 L3,12 L4,12 Z M10,11 L10,12 L9,12 L9,11 L10,11 Z M4,9 L4,10 L3,10 L3,9 L4,9 Z M8,9 L8,10 L7,10 L7,9 L8,9 Z M13,7 L13,8 L12,8 L12,7 L13,7 Z M6,6 L6,7 L5,7 L5,6 L6,6 Z M10,6 L10,7 L9,7 L9,6 L10,6 Z M13,3 L13,4 L12,4 L12,3 L13,3 Z M8,3 L8,4 L7,4 L7,3 L8,3 Z M4,3 L4,4 L3,4 L3,3 L4,3 Z" id="Shape"></path>
            </g>
        </g>
    </g>
</svg>